<svg id="fa6-solid:medal" xmlns="http://www.w3.org/2000/svg" width="39.996" height="40" viewBox="0 0 39.996 40">
  <path id="Vector" d="M17.476,10.219,11.648.607a1.062,1.062,0,0,0-1-.607h-9.4A1.25,1.25,0,0,0,.229,1.967l8.7,12.414A16.15,16.15,0,0,1,17.476,10.219ZM20,12.5a13.75,13.75,0,1,0,13.75,13.75A13.745,13.745,0,0,0,20,12.5Zm7.226,12.289L24.267,27.68l.693,4.082a.893.893,0,0,1-1.3.937L20,30.776,16.335,32.7a.893.893,0,0,1-1.3-.937l.693-4.082L12.77,24.785a.9.9,0,0,1,.5-1.535l4.092-.6,1.83-3.709a.893.893,0,0,1,1.6,0l1.836,3.711,4.092.6A.9.9,0,0,1,27.226,24.789ZM38.679,0H29.351a1.25,1.25,0,0,0-1.072.607l-5.762,9.539a16.108,16.108,0,0,1,8.555,4.17L39.766,1.9A1.219,1.219,0,0,0,38.679,0Z" transform="translate(0)" fill="#99c5e5"/>
</svg>
