<svg xmlns="http://www.w3.org/2000/svg" width="24.749" height="24.749" viewBox="0 0 24.749 24.749">
  <path id="Icon_awesome-linkedin" data-name="Icon awesome-linkedin" d="M22.981,2.25H1.762A1.775,1.775,0,0,0,0,4.034v21.18A1.775,1.775,0,0,0,1.762,27H22.981a1.78,1.78,0,0,0,1.768-1.784V4.034A1.78,1.78,0,0,0,22.981,2.25ZM7.48,23.463H3.812V11.652H7.485V23.463ZM5.646,10.039A2.127,2.127,0,1,1,7.773,7.912a2.128,2.128,0,0,1-2.127,2.127ZM21.23,23.463H17.562V17.718c0-1.37-.028-3.132-1.906-3.132-1.911,0-2.2,1.492-2.2,3.033v5.845H9.784V11.652H13.3v1.613h.05a3.864,3.864,0,0,1,3.475-1.906c3.712,0,4.4,2.447,4.4,5.629Z" transform="translate(0 -2.25)" fill="#99c5e5"/>
</svg>
