<svg xmlns="http://www.w3.org/2000/svg" width="25.303" height="25.302" viewBox="0 0 25.303 25.302">
  <path id="Icon_awesome-facebook-square" data-name="Icon awesome-facebook-square" d="M22.591,2.25H2.711A2.711,2.711,0,0,0,0,4.961v19.88a2.711,2.711,0,0,0,2.711,2.711h7.752v-8.6H6.9V14.9h3.558V11.815c0-3.51,2.09-5.449,5.29-5.449a21.556,21.556,0,0,1,3.136.273v3.445H17.123a2.025,2.025,0,0,0-2.283,2.187V14.9h3.885L18.1,18.95H14.84v8.6h7.752A2.711,2.711,0,0,0,25.3,24.841V4.961A2.711,2.711,0,0,0,22.591,2.25Z" transform="translate(0 -2.25)" fill="#99c5e5"/>
</svg>
