<svg xmlns="http://www.w3.org/2000/svg" width="25.302" height="25.302" viewBox="0 0 25.302 25.302">
  <path id="Icon_zocial-instagram" data-name="Icon zocial-instagram" d="M2.246,25.226A3.008,3.008,0,0,1,.862,24.44,2.784,2.784,0,0,1,.1,23.12C.007,22.769,0,22.437,0,12.673,0,1.7-.018,2.306.269,1.688A2.951,2.951,0,0,1,1.708.259c.638-.282.015-.267,11.07-.252l10.185.01.316.109a3,3,0,0,1,1.9,1.9l.109.316.01,10.185c.015,11.312.04,10.466-.321,11.2a2.937,2.937,0,0,1-1.251,1.251c-.722.356.1.331-11.094.326C4.071,25.3,2.5,25.285,2.246,25.226Zm19.707-3.011c.405-.287.415-.316.43-2.2.015-1.834,0-1.928-.3-2.22-.272-.267-.4-.282-2.19-.277l-1.632,0-.222.119a1.216,1.216,0,0,0-.366.346l-.148.218,0,1.636c0,.895.015,1.711.04,1.8a.923.923,0,0,0,.5.623l.247.124,1.716-.015,1.711-.015Zm-8.316-4.8a4.907,4.907,0,0,0,3.787-3.807A6.04,6.04,0,0,0,17.479,12a4.98,4.98,0,0,0-2.536-3.639,5.305,5.305,0,0,0-1.305-.485c-.094-.01-.292-.04-.44-.064A4.884,4.884,0,0,0,8.787,9.7a4.837,4.837,0,0,0,.094,6.007,4.929,4.929,0,0,0,3.263,1.775A5.16,5.16,0,0,0,13.637,17.414ZM5.03,14.206a7.846,7.846,0,0,1,.653-5.018A7.273,7.273,0,0,1,7.161,7.156a7.711,7.711,0,0,1,6.729-2.2,7.832,7.832,0,0,1,6.3,5.735,7.678,7.678,0,0,1,.2,2.769,5.444,5.444,0,0,1-.2,1.068c-.015.025-.01.044.015.049.188.02,2.111.015,2.146-.01s.04-2.21.035-5.517l-.015-5.493-.148-.213a1.235,1.235,0,0,0-.371-.326l-.222-.114L12.6,2.924l-9.023.01-.2.133a1.3,1.3,0,0,0-.316.321l-.119.188L2.924,9.039c0,3.006,0,5.483.01,5.513a5.32,5.32,0,0,0,1.1.049H5.119Z" transform="translate(25.302 25.302) rotate(180)" fill="#99c5e5"/>
</svg>
